<svg width="200" height="190" viewBox="0 0 200 190" fill="none" xmlns="http://www.w3.org/2000/svg">
<path d="M190 100C190 88.181 187.672 76.4778 183.149 65.5585C178.626 54.6392 171.997 44.7177 163.64 36.3604C155.282 28.0031 145.361 21.3738 134.442 16.8508C123.522 12.3279 111.819 10 100 10C88.181 9.99999 76.4779 12.3279 65.5585 16.8508C54.6392 21.3737 44.7177 28.0031 36.3604 36.3604C28.0031 44.7176 21.3738 54.6391 16.8509 65.5584C12.3279 76.4777 10 88.181 10 100" stroke="#EEF0F2" stroke-width="20" stroke-linecap="round" stroke-linejoin="round"/>
<path d="M10 100C10 80.9939 16.017 62.4756 27.1885 47.0993C38.36 31.723 54.1126 20.2781 72.1885 14.4049C90.2644 8.53169 109.736 8.5317 127.812 14.4049C145.887 20.2781 161.64 31.7231 172.812 47.0994" stroke="#448DF2" stroke-width="20" stroke-linecap="round" stroke-linejoin="round"/>
</svg>
